<?xml version="1.0" encoding="UTF-8" standalone="no"?>
<!DOCTYPE svg PUBLIC "-//W3C//DTD SVG 1.1//EN"
 "http://www.w3.org/Graphics/SVG/1.1/DTD/svg11.dtd">
<!-- Generated by graphviz version 2.28.0 (20121231.2356)
 -->
<!-- Title: g Pages: 1 -->
<svg width="340pt" height="206pt"
 viewBox="0.00 0.00 340.00 206.00" xmlns="http://www.w3.org/2000/svg" xmlns:xlink="http://www.w3.org/1999/xlink">
<g id="graph1" class="graph" transform="scale(1 1) rotate(0) translate(4 202)">
<title>g</title>
<polygon fill="white" stroke="white" points="-4,5 -4,-202 337,-202 337,5 -4,5"/>
<!-- NoUnnecessary -->
<g id="node2" class="node"><title>NoUnnecessary</title>
<ellipse fill="none" stroke="black" cx="281" cy="-99" rx="50.5138" ry="18"/>
<text text-anchor="middle" x="281" y="-95.4" font-family="Times,serif" font-size="9.00">NoUnnecessary.md</text>
</g>
<!-- NoUnnecessaryidea -->
<g id="node4" class="node"><title>NoUnnecessaryidea</title>
<ellipse fill="none" stroke="black" cx="89" cy="-180" rx="88.0188" ry="18"/>
<text text-anchor="middle" x="89" y="-174.4" font-family="Times,serif" font-size="14.00">NoUnnecessaryidea</text>
</g>
<!-- NoUnnecessaryidea&#45;&gt;NoUnnecessary -->
<g id="edge4" class="edge"><title>NoUnnecessaryidea&#45;&gt;NoUnnecessary</title>
<path fill="none" stroke="black" d="M142.692,-165.613C154.462,-161.909 166.777,-157.643 178,-153 201.176,-143.411 226.074,-130.289 245.47,-119.381"/>
<polygon fill="black" stroke="black" points="247.283,-122.376 254.242,-114.388 243.82,-116.293 247.283,-122.376"/>
<text text-anchor="middle" x="204" y="-149.8" font-family="Times,serif" font-size="9.00">subs</text>
</g>
<!-- nouncsvg -->
<g id="node7" class="node"><title>nouncsvg</title>
<ellipse fill="none" stroke="black" cx="89" cy="-126" rx="48.1034" ry="18"/>
<text text-anchor="middle" x="89" y="-120.4" font-family="Times,serif" font-size="14.00">nouncsvg</text>
</g>
<!-- nouncsvg&#45;&gt;NoUnnecessary -->
<g id="edge7" class="edge"><title>nouncsvg&#45;&gt;NoUnnecessary</title>
<path fill="none" stroke="black" d="M134.067,-119.738C160.722,-115.95 194.971,-111.083 223.59,-107.016"/>
<polygon fill="black" stroke="black" points="224.447,-110.43 233.855,-105.557 223.462,-103.499 224.447,-110.43"/>
<text text-anchor="middle" x="204" y="-113.8" font-family="Times,serif" font-size="9.00">dotml</text>
</g>
<!-- noundotml -->
<g id="node10" class="node"><title>noundotml</title>
<ellipse fill="none" stroke="black" cx="89" cy="-72" rx="52.7699" ry="18"/>
<text text-anchor="middle" x="89" y="-66.4" font-family="Times,serif" font-size="14.00">noundotml</text>
</g>
<!-- noundotml&#45;&gt;NoUnnecessary -->
<g id="edge10" class="edge"><title>noundotml&#45;&gt;NoUnnecessary</title>
<path fill="none" stroke="black" d="M138.437,-78.8831C164.467,-82.5821 196.693,-87.1617 223.82,-91.0165"/>
<polygon fill="black" stroke="black" points="223.55,-94.5132 233.943,-92.455 224.535,-87.5828 223.55,-94.5132"/>
<text text-anchor="middle" x="204" y="-92.8" font-family="Times,serif" font-size="9.00">selfquery</text>
</g>
<!-- fulltablemd -->
<g id="node13" class="node"><title>fulltablemd</title>
<ellipse fill="none" stroke="black" cx="89" cy="-18" rx="55.6075" ry="18"/>
<text text-anchor="middle" x="89" y="-12.4" font-family="Times,serif" font-size="14.00">fulltablemd</text>
</g>
<!-- fulltablemd&#45;&gt;NoUnnecessary -->
<g id="edge13" class="edge"><title>fulltablemd&#45;&gt;NoUnnecessary</title>
<path fill="none" stroke="black" d="M132.648,-29.3169C147.241,-33.6525 163.529,-39.0125 178,-45 201.176,-54.5889 226.074,-67.7114 245.47,-78.6191"/>
<polygon fill="black" stroke="black" points="243.82,-81.7072 254.242,-83.6121 247.283,-75.6236 243.82,-81.7072"/>
</g>
</g>
</svg>
